<?xml version="1.0" encoding="UTF-8" standalone="no"?>
<!DOCTYPE svg PUBLIC "-//W3C//DTD SVG 1.1//EN" "http://www.w3.org/Graphics/SVG/1.1/DTD/svg11.dtd">
<svg width="100%" height="100%" viewBox="0 0 134 134" version="1.1" xmlns="http://www.w3.org/2000/svg" xmlns:xlink="http://www.w3.org/1999/xlink" xml:space="preserve" xmlns:serif="http://www.serif.com/" style="fill-rule:evenodd;clip-rule:evenodd;stroke-linejoin:round;stroke-miterlimit:2;">
    <path d="M66.537,0C48.467,0 46.201,0.077 39.104,0.4C32.022,0.723 27.185,1.848 22.953,3.493C18.577,5.193 14.867,7.469 11.168,11.167C7.469,14.866 5.193,18.577 3.493,22.953C1.848,27.185 0.724,32.022 0.4,39.104C0.076,46.201 0,48.467 0,66.537C0,84.607 0.076,86.873 0.4,93.97C0.724,101.052 1.848,105.889 3.493,110.121C5.193,114.496 7.469,118.207 11.168,121.906C14.867,125.605 18.577,127.88 22.953,129.581C27.185,131.225 32.022,132.35 39.104,132.673C46.201,132.997 48.467,133.074 66.537,133.074C84.607,133.074 86.873,132.997 93.97,132.673C101.052,132.35 105.889,131.225 110.121,129.581C114.496,127.88 118.207,125.605 121.906,121.906C125.605,118.207 127.88,114.496 129.581,110.121C131.225,105.889 132.35,101.052 132.673,93.97C132.997,86.873 133.074,84.607 133.074,66.537C133.074,48.467 132.997,46.201 132.673,39.104C132.35,32.022 131.225,27.185 129.581,22.953C127.88,18.577 125.605,14.866 121.906,11.167C118.207,7.469 114.496,5.193 110.121,3.493C105.889,1.848 101.052,0.723 93.97,0.4C86.873,0.077 84.607,0 66.537,0ZM66.537,11.989C84.303,11.989 86.407,12.057 93.423,12.377C99.911,12.672 103.434,13.756 105.778,14.668C108.884,15.875 111.101,17.316 113.429,19.645C115.757,21.973 117.199,24.19 118.406,27.295C119.317,29.64 120.401,33.163 120.697,39.65C121.017,46.666 121.085,48.771 121.085,66.537C121.085,84.303 121.017,86.407 120.697,93.423C120.401,99.911 119.317,103.434 118.406,105.778C117.199,108.884 115.757,111.101 113.429,113.429C111.101,115.757 108.884,117.199 105.778,118.406C103.434,119.317 99.911,120.401 93.423,120.697C86.408,121.017 84.304,121.085 66.537,121.085C48.769,121.085 46.666,121.017 39.65,120.697C33.163,120.401 29.64,119.317 27.295,118.406C24.189,117.199 21.973,115.757 19.645,113.429C17.317,111.101 15.875,108.884 14.668,105.778C13.756,103.434 12.673,99.911 12.377,93.423C12.057,86.407 11.989,84.303 11.989,66.537C11.989,48.771 12.057,46.666 12.377,39.65C12.673,33.163 13.756,29.64 14.668,27.295C15.875,24.189 17.317,21.973 19.645,19.645C21.973,17.316 24.19,15.875 27.295,14.668C29.64,13.756 33.163,12.672 39.65,12.377C46.666,12.057 48.771,11.989 66.537,11.989" style="fill:rgb(16,15,13);fill-rule:nonzero;"/>
    <path d="M66.537,88.716C54.288,88.716 44.358,78.786 44.358,66.537C44.358,54.288 54.288,44.358 66.537,44.358C78.786,44.358 88.716,54.288 88.716,66.537C88.716,78.786 78.786,88.716 66.537,88.716ZM66.537,32.369C47.666,32.369 32.369,47.666 32.369,66.537C32.369,85.407 47.666,100.704 66.537,100.704C85.407,100.704 100.704,85.407 100.704,66.537C100.704,47.666 85.407,32.369 66.537,32.369ZM110.039,31.019C110.039,35.429 106.464,39.004 102.054,39.004C97.645,39.004 94.07,35.429 94.07,31.019C94.07,26.61 97.645,23.035 102.054,23.035C106.464,23.035 110.039,26.61 110.039,31.019Z" style="fill:rgb(16,15,13);fill-rule:nonzero;"/>
</svg>
